<svg width="24" height="25" viewBox="0 0 24 25" fill="none" xmlns="http://www.w3.org/2000/svg">
<g clip-path="url(#clip0_22_129)">
<path d="M23.8425 7.76396C23.8425 5.65458 22.291 3.95771 20.3738 3.95771C17.7769 3.8363 15.1285 3.78943 12.4219 3.78943H11.5782C8.87815 3.78943 6.22503 3.8363 3.62815 3.95818C1.71565 3.95818 0.164088 5.66443 0.164088 7.7738C0.0469007 9.44208 -0.00278685 11.1108 2.56512e-05 12.7796C-0.00466185 14.4483 0.0484632 16.1186 0.159401 17.7905C0.159401 19.8999 1.71096 21.6108 3.62346 21.6108C6.35159 21.7374 9.15003 21.7936 11.9953 21.789C14.8453 21.7983 17.636 21.739 20.3672 21.6108C22.2844 21.6108 23.836 19.8999 23.836 17.7905C23.9485 16.1171 24 14.4483 23.9953 12.7749C24.006 11.1061 23.955 9.43583 23.8425 7.76396ZM9.70315 17.378V8.16708L16.5 12.7702L9.70315 17.378Z" fill="#D1D5DB"/>
</g>
<defs>
<clipPath id="clip0_22_129">
<rect width="24" height="24" fill="white" transform="translate(0 0.789429)"/>
</clipPath>
</defs>
</svg>
