<svg width="24" height="25" viewBox="0 0 24 25" fill="none" xmlns="http://www.w3.org/2000/svg">
<g clip-path="url(#clip0_22_133)">
<path d="M19.3214 6.35162C19.1695 6.27312 19.0217 6.18708 18.8784 6.0938C18.4618 5.81839 18.0799 5.49387 17.7408 5.12724C16.8923 4.15646 16.5755 3.17162 16.4588 2.48208H16.4634C16.3659 1.90974 16.4063 1.53943 16.4123 1.53943H12.548V16.4822C12.548 16.6829 12.548 16.8811 12.5395 17.0771C12.5395 17.1015 12.5372 17.124 12.5358 17.1502C12.5358 17.161 12.5358 17.1722 12.5334 17.1835C12.5334 17.1863 12.5334 17.1891 12.5334 17.1919C12.4927 17.7281 12.3208 18.246 12.033 18.7001C11.7451 19.1543 11.35 19.5307 10.8825 19.7963C10.3953 20.0735 9.84418 20.2189 9.2836 20.2182C7.48313 20.2182 6.02391 18.7501 6.02391 16.9369C6.02391 15.1238 7.48313 13.6557 9.2836 13.6557C9.62442 13.6554 9.96314 13.709 10.2872 13.8146L10.2919 9.8799C9.30814 9.75283 8.30875 9.83101 7.35674 10.1095C6.40473 10.388 5.52077 10.8608 4.76063 11.498C4.09457 12.0767 3.5346 12.7673 3.10594 13.5385C2.94282 13.8197 2.32735 14.9499 2.25282 16.7841C2.20594 17.8252 2.5186 18.9038 2.66766 19.3496V19.359C2.76141 19.6215 3.12469 20.5172 3.71672 21.2724C4.19412 21.8781 4.75814 22.4103 5.39063 22.8516V22.8422L5.4 22.8516C7.27079 24.1229 9.34501 24.0394 9.34501 24.0394C9.70407 24.0249 10.9069 24.0394 12.2728 23.3921C13.7878 22.6744 14.6503 21.6052 14.6503 21.6052C15.2013 20.9663 15.6395 20.2383 15.9459 19.4522C16.2956 18.533 16.4123 17.4305 16.4123 16.9899V9.0624C16.4592 9.09052 17.0836 9.50349 17.0836 9.50349C17.0836 9.50349 17.9831 10.0801 19.3866 10.4555C20.3934 10.7227 21.75 10.779 21.75 10.779V6.94271C21.2747 6.99427 20.3095 6.84427 19.3214 6.35162Z" fill="#D1D5DB"/>
</g>
<defs>
<clipPath id="clip0_22_133">
<rect width="24" height="24" fill="white" transform="translate(0 0.789429)"/>
</clipPath>
</defs>
</svg>
