<svg width="24" height="25" viewBox="0 0 24 25" fill="none" xmlns="http://www.w3.org/2000/svg">
<path d="M23.25 5.92213C22.406 6.28885 21.513 6.53046 20.5992 6.63931C21.5595 6.07699 22.2817 5.18364 22.6303 4.12681C21.7224 4.65772 20.7307 5.03022 19.6978 5.22838C19.2629 4.77253 18.7397 4.40989 18.1603 4.16251C17.5808 3.91512 16.9571 3.78815 16.327 3.78931C13.7761 3.78931 11.7117 5.82369 11.7117 8.3315C11.7099 8.68033 11.7499 9.02812 11.8308 9.36744C10.0016 9.28169 8.2104 8.81506 6.57187 7.9974C4.93333 7.17975 3.48351 6.02908 2.31516 4.619C1.90527 5.31 1.6885 6.0984 1.6875 6.90181C1.6875 8.47681 2.50922 9.869 3.75 10.6846C3.01487 10.6672 2.29481 10.4726 1.65094 10.1174V10.1737C1.65094 12.3768 3.24469 14.2096 5.35406 14.6268C4.9574 14.7326 4.54864 14.7861 4.13812 14.7862C3.84683 14.7867 3.5562 14.7584 3.27047 14.7018C3.85687 16.5065 5.56359 17.819 7.58531 17.8565C5.94252 19.1226 3.9256 19.8069 1.85156 19.8018C1.48341 19.8013 1.11561 19.7794 0.75 19.7362C2.85993 21.0835 5.31255 21.7961 7.81594 21.7893C16.3172 21.7893 20.9616 14.8659 20.9616 8.86119C20.9616 8.66431 20.9564 8.46744 20.947 8.27525C21.8485 7.63403 22.6283 6.83718 23.25 5.92213Z" fill="#D1D5DB"/>
</svg>
