<svg width="24" height="25" viewBox="0 0 24 25" fill="none" xmlns="http://www.w3.org/2000/svg">
<path d="M16.3748 4.03927C17.5342 4.04273 18.6451 4.50482 19.4648 5.3246C20.2846 6.14438 20.7467 7.25524 20.7502 8.41459V17.1643C20.7467 18.3236 20.2846 19.4345 19.4648 20.2543C18.6451 21.074 17.5342 21.5361 16.3748 21.5396H7.62516C6.46582 21.5361 5.35495 21.074 4.53517 20.2543C3.71539 19.4345 3.25331 18.3236 3.24984 17.1643V8.41459C3.25331 7.25524 3.71539 6.14438 4.53517 5.3246C5.35495 4.50482 6.46582 4.04273 7.62516 4.03927H16.3748ZM16.3748 2.28943H7.62516C4.25625 2.28943 1.5 5.04568 1.5 8.41459V17.1643C1.5 20.5332 4.25625 23.2894 7.62516 23.2894H16.3748C19.7437 23.2894 22.5 20.5332 22.5 17.1643V8.41459C22.5 5.04568 19.7437 2.28943 16.3748 2.28943Z" fill="#D1D5DB"/>
<path d="M17.6873 8.4143C17.4277 8.4143 17.174 8.33733 16.9581 8.19311C16.7423 8.04889 16.5741 7.8439 16.4747 7.60408C16.3754 7.36425 16.3494 7.10035 16.4 6.84575C16.4507 6.59115 16.5757 6.35729 16.7592 6.17373C16.9428 5.99017 17.1767 5.86517 17.4313 5.81453C17.6859 5.76388 17.9498 5.78988 18.1896 5.88922C18.4294 5.98856 18.6344 6.15678 18.7786 6.37262C18.9228 6.58846 18.9998 6.84222 18.9998 7.10181C19.0002 7.27427 18.9665 7.44511 18.9007 7.60452C18.8348 7.76392 18.7382 7.90876 18.6162 8.03071C18.4943 8.15266 18.3494 8.24932 18.19 8.31515C18.0306 8.38098 17.8598 8.41468 17.6873 8.4143Z" fill="#D1D5DB"/>
<path d="M12 9.28927C12.6923 9.28927 13.369 9.49455 13.9446 9.87916C14.5202 10.2638 14.9688 10.8104 15.2337 11.45C15.4986 12.0895 15.568 12.7933 15.4329 13.4723C15.2978 14.1512 14.9645 14.7749 14.475 15.2644C13.9855 15.7539 13.3618 16.0873 12.6829 16.2223C12.0039 16.3574 11.3001 16.2881 10.6606 16.0232C10.021 15.7582 9.47434 15.3096 9.08974 14.734C8.70513 14.1584 8.49985 13.4817 8.49985 12.7894C8.50085 11.8614 8.86993 10.9717 9.52612 10.3155C10.1823 9.65935 11.072 9.29027 12 9.28927ZM12 7.53943C10.9617 7.53943 9.94662 7.84734 9.08327 8.42421C8.21991 9.00109 7.547 9.82103 7.14964 10.7803C6.75228 11.7397 6.64832 12.7953 6.85089 13.8137C7.05346 14.8321 7.55347 15.7675 8.2877 16.5017C9.02192 17.236 9.95738 17.736 10.9758 17.9386C11.9942 18.1411 13.0498 18.0372 14.0091 17.6398C14.9684 17.2424 15.7883 16.5695 16.3652 15.7062C16.9421 14.8428 17.25 13.8278 17.25 12.7894C17.25 11.397 16.6969 10.0617 15.7123 9.07712C14.7277 8.09255 13.3924 7.53943 12 7.53943Z" fill="#D1D5DB"/>
</svg>
